<svg height="512pt" viewBox="0 0 512 512" width="512pt" xmlns="http://www.w3.org/2000/svg"><path d="m247.464844 221.867188h17.070312v119.464843h-17.070312zm0 0" fill="#0b3d1d"/><path d="m238.933594 162.132812c-4.710938 0-8.535156-3.824218-8.535156-8.53125 0-18.824218-15.308594-34.136718-34.132813-34.136718-4.710937 0-8.53125-3.820313-8.53125-8.53125 0-4.710938 3.820313-8.535156 8.53125-8.535156 28.230469 0 51.199219 22.964843 51.199219 51.203124 0 4.707032-3.820313 8.53125-8.53125 8.53125zm0 0" fill="#afb6bb"/><path d="m273.066406 162.132812c-4.710937 0-8.53125-3.824218-8.53125-8.53125 0-28.238281 22.96875-51.203124 51.199219-51.203124 4.710937 0 8.53125 3.824218 8.53125 8.535156 0 4.710937-3.820313 8.53125-8.53125 8.53125-18.824219 0-34.132813 15.3125-34.132813 34.136718 0 4.707032-3.824218 8.53125-8.535156 8.53125zm0 0" fill="#afb6bb"/><g fill="#28384c"><path d="m298.667969 230.398438h-85.335938v-51.191407c0-14.136719 11.46875-25.605469 25.609375-25.605469h34.117188c14.140625 0 25.609375 11.46875 25.609375 25.605469zm0 0"/><path d="m187.734375 264.535156h-25.601563c-14.113281 0-25.597656-11.488281-25.597656-25.601562v-25.601563c0-4.710937 3.820313-8.53125 8.53125-8.53125 4.710938 0 8.535156 3.820313 8.535156 8.53125v25.601563c0 4.703125 3.820313 8.53125 8.53125 8.53125h25.601563c4.710937 0 8.53125 3.824218 8.53125 8.535156s-3.820313 8.535156-8.53125 8.535156zm0 0"/><path d="m145.066406 375.464844c-4.710937 0-8.53125-3.820313-8.53125-8.53125v-25.601563c0-14.113281 11.484375-25.597656 25.597656-25.597656h25.601563c4.710937 0 8.53125 3.820313 8.53125 8.53125s-3.820313 8.535156-8.53125 8.535156h-25.601563c-4.710937 0-8.53125 3.832031-8.53125 8.53125v25.601563c0 4.710937-3.824218 8.53125-8.535156 8.53125zm0 0"/><path d="m187.734375 298.667969h-42.667969c-4.710937 0-8.53125-3.824219-8.53125-8.535157 0-4.710937 3.820313-8.53125 8.53125-8.53125h42.667969c4.710937 0 8.53125 3.820313 8.53125 8.53125 0 4.710938-3.820313 8.535157-8.53125 8.535157zm0 0"/><path d="m349.867188 264.535156h-25.601563c-4.710937 0-8.53125-3.824218-8.53125-8.535156s3.820313-8.535156 8.53125-8.535156h25.601563c4.710937 0 8.53125-3.828125 8.53125-8.53125v-25.601563c0-4.710937 3.824218-8.53125 8.535156-8.53125 4.710937 0 8.53125 3.820313 8.53125 8.53125v25.601563c0 14.113281-11.484375 25.601562-25.597656 25.601562zm0 0"/><path d="m366.933594 375.464844c-4.710938 0-8.535156-3.820313-8.535156-8.53125v-25.601563c0-4.699219-3.820313-8.53125-8.53125-8.53125h-25.601563c-4.710937 0-8.53125-3.824219-8.53125-8.535156s3.820313-8.53125 8.53125-8.53125h25.601563c14.113281 0 25.597656 11.484375 25.597656 25.597656v25.601563c0 4.710937-3.820313 8.53125-8.53125 8.53125zm0 0"/><path d="m366.933594 298.667969h-42.667969c-4.710937 0-8.53125-3.824219-8.53125-8.535157 0-4.710937 3.820313-8.53125 8.53125-8.53125h42.667969c4.710937 0 8.53125 3.820313 8.53125 8.53125 0 4.710938-3.820313 8.535157-8.53125 8.535157zm0 0"/></g><path d="m221.867188 375.464844c-18.851563 0-34.132813-15.28125-34.132813-34.132813v-119.464843h68.265625v119.464843c0 18.851563-15.28125 34.132813-34.132812 34.132813zm0 0" fill="#31db70"/><path d="m290.132812 375.464844c-18.851562 0-34.132812-15.28125-34.132812-34.132813v-119.464843h68.265625v119.464843c0 18.851563-15.28125 34.132813-34.132813 34.132813zm0 0" fill="#199046"/><path d="m221.867188 298.667969c-4.710938 0-8.535157-3.824219-8.535157-8.535157v-34.132812c0-4.710938 3.824219-8.535156 8.535157-8.535156 4.710937 0 8.53125 3.824218 8.53125 8.535156v34.132812c0 4.710938-3.820313 8.535157-8.53125 8.535157zm0 0" fill="#fff"/><path d="m290.132812 349.867188c-4.710937 0-8.53125-3.824219-8.53125-8.535157v-34.132812c0-4.710938 3.820313-8.53125 8.53125-8.53125 4.710938 0 8.535157 3.820312 8.535157 8.53125v34.132812c0 4.710938-3.824219 8.535157-8.535157 8.535157zm0 0" fill="#fff"/><path d="m256 34.132812c-122.53125 0-221.867188 99.335938-221.867188 221.867188s99.335938 221.867188 221.867188 221.867188 221.867188-99.335938 221.867188-221.867188-99.335938-221.867188-221.867188-221.867188zm0 409.601563c-103.679688 0-187.734375-84.054687-187.734375-187.734375s84.054687-187.734375 187.734375-187.734375 187.734375 84.054687 187.734375 187.734375-84.054687 187.734375-187.734375 187.734375zm0 0" fill="#0e4d25"/><path d="m256 102.398438c-4.710938 0-8.535156-3.820313-8.535156-8.53125v-85.332032c0-4.710937 3.824218-8.535156 8.535156-8.535156s8.535156 3.824219 8.535156 8.535156v85.332032c0 4.710937-3.824218 8.53125-8.535156 8.53125zm0 0" fill="#74e79e"/><path d="m256 512c-4.710938 0-8.535156-3.824219-8.535156-8.535156v-85.332032c0-4.710937 3.824218-8.53125 8.535156-8.53125s8.535156 3.820313 8.535156 8.53125v85.332032c0 4.710937-3.824218 8.535156-8.535156 8.535156zm0 0" fill="#74e79e"/><path d="m503.464844 264.535156h-85.332032c-4.710937 0-8.53125-3.824218-8.53125-8.535156s3.820313-8.535156 8.53125-8.535156h85.332032c4.710937 0 8.535156 3.824218 8.535156 8.535156s-3.824219 8.535156-8.535156 8.535156zm0 0" fill="#74e79e"/><path d="m93.867188 264.535156h-85.332032c-4.710937 0-8.535156-3.824218-8.535156-8.535156s3.824219-8.535156 8.535156-8.535156h85.332032c4.710937 0 8.53125 3.824218 8.53125 8.535156s-3.820313 8.535156-8.53125 8.535156zm0 0" fill="#74e79e"/></svg>