<?xml version="1.0" encoding="iso-8859-1"?>
<svg version="1.1" id="Capa_1" xmlns="http://www.w3.org/2000/svg" xmlns:xlink="http://www.w3.org/1999/xlink" x="0px" y="0px"
	 viewBox="0 0 512 512" style="enable-background:new 0 0 512 512;" xml:space="preserve">
<g>
	<path style="fill:#005b53;" d="M256,17.655C124.366,17.655,17.655,124.366,17.655,256S124.366,494.345,256,494.345
		S494.345,387.634,494.345,256c0-63.213-25.111-123.837-69.81-168.535S319.213,17.655,256,17.655z M256,459.034
		c-112.133,0-203.034-90.902-203.034-203.034S143.867,52.966,256,52.966S459.034,143.867,459.034,256
		C458.893,368.074,368.074,458.893,256,459.034z"/>
	<g>
		<path style="fill:#009688;" d="M209.276,144.887c-3.464-3.345-8.97-3.298-12.375,0.108s-3.453,8.911-0.108,12.375l25.423,25.423
			c3.464,3.345,8.97,3.298,12.375-0.108c3.405-3.405,3.453-8.911,0.108-12.375L209.276,144.887z"/>
		<path style="fill:#009688;" d="M315.207,144.887c-3.447-3.446-9.035-3.446-12.482,0l-25.423,25.423
			c-2.295,2.216-3.215,5.499-2.407,8.585c0.808,3.086,3.218,5.497,6.305,6.305c3.086,0.808,6.368-0.112,8.585-2.407l25.423-25.423
			C318.653,153.922,318.653,148.334,315.207,144.887z"/>
	</g>
	<g>
		<path style="fill:#00342f;" d="M162.781,234.231l37.464,12.491c2.996,0.997,6.296,0.319,8.657-1.777
			c2.361-2.096,3.424-5.293,2.79-8.386c-0.635-3.093-2.872-5.612-5.868-6.609l-37.455-12.482c-4.375-1.458-6.891-6.039-5.773-10.514
			l4.864-19.421c1.145-4.714-1.728-9.468-6.433-10.647c-4.705-1.179-9.48,1.66-10.693,6.357l-4.864,19.421
			C142.159,216.086,149.683,229.807,162.781,234.231z"/>
		<path style="fill:#00342f;" d="M200.245,300.588l-37.455,12.491c-13.092,4.421-20.619,18.131-17.32,31.55l4.864,19.421
			c0.974,3.938,4.506,6.706,8.563,6.709c0.726,0.003,1.45-0.086,2.154-0.265c4.729-1.185,7.602-5.979,6.418-10.708l-4.864-19.421
			c-1.123-4.477,1.394-9.064,5.773-10.522l37.455-12.482c4.632-1.541,7.137-6.544,5.597-11.176
			c-1.541-4.632-6.544-7.137-11.176-5.597H200.245z"/>
		<path style="fill:#00342f;" d="M203.034,264.828h-44.138c-4.875,0-8.828,3.952-8.828,8.828s3.952,8.828,8.828,8.828h44.138
			c4.875,0,8.828-3.952,8.828-8.828S207.91,264.828,203.034,264.828z"/>
		<path style="fill:#00342f;" d="M308.966,247.172c0.948,0.001,1.89-0.151,2.79-0.45l37.455-12.491
			c13.092-4.421,20.619-18.131,17.32-31.55l-4.864-19.421c-0.748-3.079-3.089-5.521-6.134-6.399
			c-3.045-0.877-6.327-0.055-8.598,2.154c-2.272,2.209-3.185,5.467-2.393,8.535l4.864,19.421c1.123,4.477-1.394,9.064-5.773,10.523
			l-37.455,12.482c-4.097,1.376-6.596,5.516-5.904,9.782C300.964,244.025,304.643,247.163,308.966,247.172z"/>
		<path style="fill:#00342f;" d="M349.219,313.079l-37.464-12.491c-2.996-0.997-6.296-0.319-8.657,1.777
			c-2.361,2.096-3.424,5.293-2.79,8.386c0.635,3.093,2.872,5.612,5.868,6.609l37.455,12.482c4.375,1.458,6.891,6.039,5.773,10.514
			l-4.864,19.421c-1.185,4.729,1.689,9.523,6.418,10.708c0.701,0.181,1.421,0.273,2.145,0.274c4.046-0.004,7.571-2.758,8.554-6.682
			l4.864-19.421C369.838,331.233,362.317,317.508,349.219,313.079z"/>
		<path style="fill:#00342f;" d="M308.966,282.483h44.138c4.875,0,8.828-3.952,8.828-8.828s-3.952-8.828-8.828-8.828h-44.138
			c-4.875,0-8.828,3.952-8.828,8.828S304.09,282.483,308.966,282.483z"/>
	</g>
	<g>
		<path style="fill:#00342f;" d="M248.011,0h15.978c5.338,0,9.666,4.328,9.666,9.666v86.599c0,5.339-4.328,9.666-9.666,9.666
			h-15.978c-5.339,0-9.666-4.328-9.666-9.666V9.666C238.345,4.328,242.673,0,248.011,0z"/>
		<path style="fill:#00342f;" d="M248.011,406.069h15.978c5.338,0,9.666,4.328,9.666,9.666v86.599c0,5.339-4.328,9.666-9.666,9.666
			h-15.978c-5.339,0-9.666-4.328-9.666-9.666v-86.599C238.345,410.397,242.673,406.069,248.011,406.069z"/>
		<path style="fill:#00342f;" d="M0,263.989v-15.978c0-5.338,4.328-9.666,9.666-9.666h86.599c5.338,0,9.666,4.328,9.666,9.666
			v15.978c0,5.339-4.328,9.666-9.666,9.666H9.666C4.328,273.655,0,269.327,0,263.989z"/>
		<path style="fill:#00342f;" d="M406.069,263.989v-15.978c0-5.339,4.328-9.666,9.666-9.666h86.599c5.339,0,9.666,4.328,9.666,9.666
			v15.978c0,5.339-4.328,9.666-9.666,9.666h-86.599C410.397,273.655,406.069,269.327,406.069,263.989z"/>
	</g>
	<path style="fill:#009688;" d="M308.966,211.862v88.276c0.01,25.839-18.655,47.901-44.138,52.171
		c-5.837,1.059-11.818,1.059-17.655,0c-25.483-4.27-44.148-26.332-44.138-52.171v-88.276l8.828-8.828h88.276L308.966,211.862z"/>
	<g>
		<path style="fill:#00342f;" d="M308.966,211.862H203.034c0-29.252,23.713-52.966,52.966-52.966
			C285.234,158.94,308.922,182.628,308.966,211.862z"/>
		<path style="fill:#00342f;" d="M264.828,264.828v87.481c-5.837,1.059-11.818,1.059-17.655,0v-87.481
			c0-4.875,3.952-8.828,8.828-8.828S264.828,259.952,264.828,264.828z"/>
	</g>
</g>
<g>
</g>
<g>
</g>
<g>
</g>
<g>
</g>
<g>
</g>
<g>
</g>
<g>
</g>
<g>
</g>
<g>
</g>
<g>
</g>
<g>
</g>
<g>
</g>
<g>
</g>
<g>
</g>
<g>
</g>
</svg>
